inDegrees=yes
name=ik_S44_A02_T01
DataType=double
version=3
OpenSimVersion=4.3-2021-08-27-4bc7ad9
endheader
time	pelvis_tilt	pelvis_list	pelvis_rotation	pelvis_tx	pelvis_ty	pelvis_tz	hip_flexion_r	hip_adduction_r	hip_rotation_r	knee_angle_r	knee_angle_r_beta	ankle_angle_r	subtalar_angle_r	mtp_angle_r	hip_flexion_l	hip_adduction_l	hip_rotation_l	knee_angle_l	knee_angle_l_beta	ankle_angle_l	subtalar_angle_l	mtp_angle_l	lumbar_extension	lumbar_bending	lumbar_rotation	arm_flex_r	arm_add_r	arm_rot_r	elbow_flex_r	pro_sup_r	wrist_flex_r	wrist_dev_r	arm_flex_l	arm_add_l	arm_rot_l	elbow_flex_l	pro_sup_l	wrist_flex_l	wrist_dev_l
0	0	0	0	0	0.9399999999999999	0	0	0	0	0	0	0	0	0	0	0	0	0	0	0	0	0	0	0	0	0	0	0	0	89.99999999963507	0	0	0	0	0	0	89.99999999869995	0	0
0.02	-0.08531406086685253	1.953545781775645	91.37149860922666	0	0.9399999999999999	0	-7.230469255211086	-7.630747062709525	-4.051201505688695	-7.120460974623807	-0.1242754882669498	0	0	0	-2.859731229051581	-5.629925971203892	-3.161897491851919	-0.2721555987261552	-0.004750011275507894	0	0	0	0	0	0	1.907267852853461	-1.907267852853461	0.3397449444997101	9.463285968104987	89.66025507509907	0	0	1.907267852853461	-1.907267852853461	0.3397449444997101	9.463285968104987	89.66025507422768	0	0
0.04	-0.08281170663066253	2.037558519034854	91.42242705423178	0	0.9399999999999999	0	-7.34439292430821	-7.586405325326154	-4.07228281653364	-7.15214577214267	-0.1248284923064817	0	0	0	-2.960771316661608	-5.644713329405201	-3.115983750279414	-0.2852149099633171	-0.004977939254639062	0	0	0	0	0	0	2.014908769622282	-2.014908769622282	0.3597221618678748	9.862925831954939	89.64027785890791	0	0	2.014908769622282	-2.014908769622282	0.3597221618678748	9.862925831954939	89.64027785804031	0	0
0.06	-0.07743288395828191	2.072596459610873	91.42910194675407	0	0.9399999999999999	0	-7.392984129845311	-7.554334798288039	-4.076017985811544	-7.195744321906446	-0.1255894305489542	0	0	0	-3.017811354963547	-5.689882652769238	-3.096188534739454	-0.3280225040052271	-0.0057250727155275	0	0	0	0	0	0	2.114828772228527	-2.114828772228527	0.37832152729985	10.25455247063197	89.62167849457288	0	0	2.114828772228527	-2.114828772228527	0.37832152729985	10.25455247063197	89.62167849370873	0	0
0.08	-0.06163472032347238	2.142371724764314	91.46170784194433	0	0.9399999999999999	0	-7.457114699019055	-7.535389656590048	-4.056959477934261	-7.17627710059141	-0.1252496634407924	0	0	0	-3.107222881201238	-5.730879687390984	-3.073650453060941	-0.3655515024184	-0.006380077302813094	0	0	0	0	0	0	2.226582084583758	-2.226582084583758	0.3990195999334996	10.67173912564052	89.60098042315818	0	0	2.226582084583758	-2.226582084583758	0.3990195999334996	10.67173912564052	89.60098042229788	0	0
0.1	-0.06776165713003933	2.204537214916163	91.47919625121995	0	0.9399999999999999	0	-7.493111065022927	-7.516405556474119	-3.981535965690682	-7.088822000839747	-0.1237232840024658	0	0	0	-3.169414929718744	-5.758543126496622	-3.083073381812052	-0.3749779739034717	-0.006544600267072955	0	0	0	0	0	0	2.332051062841165	-2.332051062841166	0.4185159589599066	11.06133478209724	89.5814840652794	0	0	2.332051062841165	-2.332051062841166	0.4185159589599066	11.06133478209724	89.58148406442275	0	0
0.12	-0.08496887059546238	2.231152814534798	91.52723450379239	0	0.9399999999999999	0	-7.486320031032319	-7.501721431524436	-3.921484121823007	-7.092507670683237	-0.1237876110763762	0	0	0	-3.171407589431057	-5.760290589420375	-3.038117997815041	-0.3798624598725632	-0.006629850629501068	0	0	0	0	0	0	2.33269528469154	-2.332695284691541	0.418639378175962	11.06599870307667	89.58136064607069	0	0	2.33269528469154	-2.332695284691541	0.418639378175962	11.06599870307667	89.58136064521408	0	0
0.14	-0.073705076148843	2.252535427405986	91.54624029567499	0	0.9399999999999999	0	-7.507295666474233	-7.485798202732107	-3.925608258095822	-7.038093791355178	-0.1228379097233187	0	0	0	-3.179042240978326	-5.778776461397438	-3.029574612547908	-0.3768316557521758	-0.006576953118617296	0	0	0	0	0	0	2.441928005771978	-2.441928005771979	0.4387918627953162	11.46159165612705	89.56120816263704	0	0	2.441928005771978	-2.441928005771979	0.4387918627953162	11.46159165612705	89.56120816178419	0	0
0.16	-0.1049578580373086	2.265887358428507	91.58750988003776	0	0.9399999999999999	0	-7.496046757793723	-7.462265135924516	-3.897104682242706	-7.041259037816087	-0.1228931536956986	0	0	0	-3.170562123589405	-5.782538492939225	-3.019302259742337	-0.3787384989753236	-0.006610233811180567	0	0	0	0	0	0	2.442355452319771	-2.442355452319771	0.4388730732354837	11.46453721665071	89.56112695220172	0	0	2.442355452319771	-2.442355452319771	0.4388730732354837	11.46453721665071	89.56112695134887	0	0
0.18	-0.1037203954133174	2.211225988525371	91.62677848978173	0	0.9399999999999999	0	-7.332629907502939	-7.443455036739118	-3.925878440833249	-6.58484780148178	-0.114927274878567	0	0	0	-3.051589212624105	-5.79696618563155	-3.013098965049934	-0.1834366842511125	-0.003201574109123142	0	0	0	0	0	0	2.563225939094174	-2.563225939094175	0.461273855283116	11.95057008495696	89.53872617147388	0	0	2.563225939094174	-2.563225939094175	0.461273855283116	11.95057008495696	89.53872617062522	0	0
0.2	-0.1226600645454334	2.247906849377457	91.72111420667397	0	0.9399999999999999	0	-7.500129147938343	-7.411019382385837	-3.994284619998546	-7.033579764509153	-0.1227591250923321	0	0	0	-3.101824107587152	-5.804829969426272	-2.981718656910658	-0.308961308529519	-0.005392392095110147	0	0	0	0	0	0	2.649183101612182	-2.649183101612183	0.4769061052815723	12.17903622030032	89.52309392239145	0	0	2.649183101612182	-2.649183101612183	0.4769061052815723	12.17903622030032	89.52309392154567	0	0
0.22	-0.1217827089361332	2.24414499354359	91.73436743140984	0	0.9399999999999999	0	-7.497067721548782	-7.377536032154212	-3.981238836927157	-7.080451477185042	-0.1235771908045751	0	0	0	-3.079854417525787	-5.830075807975106	-3.039328143077427	-0.3080980774601906	-0.005377325870744855	0	0	0	0	0	0	2.760284681044308	-2.760284681044309	0.4972748891528039	12.56207097080952	89.50272513971674	0	0	2.760284681044308	-2.760284681044309	0.4972748891528039	12.56207097080952	89.50272513887477	0	0
0.24	-0.1233045929776121	2.234031638966483	91.7953039566036	0	0.9399999999999999	0	-7.491927441643645	-7.361130843476678	-4.023558510481519	-7.034284028973126	-0.1227714168260332	0	0	0	-3.042348536890073	-5.857452783628402	-3.035325474757438	-0.2653853501726342	-0.004631848147070568	0	0	0	0	0	0	2.866634869717555	-2.866634869717556	0.5167578577391166	12.93249860875748	89.4832421722748	0	0	2.866634869717555	-2.866634869717556	0.5167578577391166	12.93249860875748	89.48324217143646	0	0
0.26	-0.1203472361710852	2.219533696945483	91.87304762760526	0	0.9399999999999999	0	-7.499354054306161	-7.342382814113891	-4.072180600225137	-7.059767002050284	-0.1232161786094267	0	0	0	-3.007401089011749	-5.8844423463513	-3.018479865257266	-0.2477998137682858	-0.004324922636085364	0	0	0	0	0	0	2.971922068866736	-2.971922068866737	0.5359870305317816	13.28780700713311	89.46401300061066	0	0	2.971922068866736	-2.971922068866737	0.5359870305317816	13.28780700713311	89.46401299977596	0	0
0.28	-0.1146541944851396	2.192888590585323	91.93697579744395	0	0.9399999999999999	0	-7.499061041372212	-7.306658332741946	-4.075161515124562	-7.10232535571408	-0.1239589620050882	0	0	0	-2.953210768571344	-5.908432268575421	-2.999573878763073	-0.2328934164837065	-0.004064756923859113	0	0	0	0	0	0	3.076663754017198	-3.076663754017199	0.5550874208370071	13.63886477560644	89.44491261142603	0	0	3.076663754017198	-3.076663754017199	0.5550874208370071	13.63886477560644	89.44491261059493	0	0
0.3	-0.126903337100935	2.169912649831642	91.99317192916142	0	0.9399999999999999	0	-7.482040199563712	-7.288887412867713	-4.074154578326556	-7.113650437005938	-0.1241566219616871	0	0	0	-2.8985424116029	-5.910712467468434	-2.996864367570419	-0.1967183265799672	-0.003433382497833905	0	0	0	0	0	0	3.181555257582121	-3.181555257582122	0.5741933475999053	13.99218073515631	89.42580668578378	0	0	3.181555257582121	-3.181555257582122	0.5741933475999053	13.99218073515631	89.42580668495629	0	0
0.32	-0.1323931972654085	2.14266912423257	92.05808445322712	0	0.9399999999999999	0	-7.459943814552009	-7.270957265468618	-4.097431213290804	-7.123211193445318	-0.1243234886405355	0	0	0	-2.844052587431506	-5.934618673220108	-2.988157315813165	-0.1781994723314832	-0.003110167517500918	0	0	0	0	0	0	3.285592769651134	-3.285592769651135	0.5931167836466533	14.34238160965667	89.40688325084665	0	0	3.285592769651134	-3.285592769651135	0.5931167836466533	14.34238160965667	89.40688325002269	0	0
0.34	-0.1399620884649232	2.100568951307224	92.12471914005808	0	0.9399999999999999	0	-7.429617477016121	-7.256658908874745	-4.115669068568711	-7.145330595016934	-0.124709545026531	0	0	0	-2.795191640417203	-5.938376227019901	-2.921040089810296	-0.1986613614628419	-0.003467294854021169	0	0	0	0	0	0	3.393103100773962	-3.393103100773963	0.6126636461805148	14.70886964383162	89.38733638945888	0	0	3.393103100773962	-3.393103100773963	0.6126636461805148	14.70886964383162	89.38733638863859	0	0
0.36	-0.1380369136794233	2.081621399083051	92.18217361190059	0	0.9399999999999999	0	-7.410060465744255	-7.242806808276881	-4.15178640145782	-7.133275578247914	-0.1244991452925285	0	0	0	-2.760655932854962	-5.956806936260751	-2.912193887869698	-0.190577753429632	-0.003326209278400993	0	0	0	0	0	0	3.497879159114553	-3.497879159114554	0.6316881105609365	15.06702269245793	89.36831192619363	0	0	3.497879159114553	-3.497879159114554	0.6316881105609365	15.06702269245793	89.36831192537693	0	0
